Coordinates
version=1
nRows=26
nColumns=24
inDegrees=yes

Units are S.I. units (second, meters, Newtons, ...)
Angles are in degrees.

endheader
time	pelvis_tilt	pelvis_list	pelvis_rotation	pelvis_tx	pelvis_ty	pelvis_tz	hip_flexion_r	hip_adduction_r	hip_rotation_r	knee_angle_r	ankle_angle_r	subtalar_angle_r	mtp_angle_r	hip_flexion_l	hip_adduction_l	hip_rotation_l	knee_angle_l	ankle_angle_l	subtalar_angle_l	mtp_angle_l	lumbar_extension	lumbar_bending	lumbar_rotation
      5.03000000	      9.99377085	      9.29005860	      3.82312615	      0.73241499	      0.75642443	     -0.25873122	      9.42486097	    -11.48301100	     -6.39489702	    -66.45519496	     19.56458602	     -2.18171563	      0.00000000	     -1.02753610	     13.58129381	      7.41273869	    -16.60401336	     20.94062905	      0.93170065	      0.00000000	    -30.60634338	     -6.61844817	      3.69706277
      5.03500000	      9.95962523	      9.26209023	      4.21066573	      0.73852964	      0.75690297	     -0.25898586	     10.40705313	    -11.57012434	     -6.74438815	    -65.80672024	     20.18213427	     -1.56689458	      0.00000000	     -1.71413027	     13.47358011	      7.79347607	    -16.31533136	     21.28945951	      1.08539380	      0.00000000	    -30.79999029	     -6.35997962	      3.23879296
      5.04000000	      9.93649000	      9.24659249	      4.58770118	      0.74464062	      0.75728717	     -0.25920200	     11.34821044	    -11.67553061	     -7.07823956	    -65.06059669	     20.76104536	     -0.94227503	      0.00000000	     -2.39428917	     13.36641946	      8.13556571	    -16.05495679	     21.66895727	      1.26604934	      0.00000000	    -31.00753611	     -6.12291506	      2.80261933
      5.04500000	      9.92702530	      9.24986148	      4.95325354	      0.75074502	      0.75757641	     -0.25938776	     12.24998812	    -11.81237134	     -7.40356929	    -64.23185090	     21.28858717	     -0.30284613	      0.00000000	     -3.07726968	     13.26725838	      8.45602240	    -15.81281525	     22.06434843	      1.47945348	      0.00000000	    -31.23616352	     -5.90946655	      2.37032033
      5.05000000	      9.92955370	      9.27405035	      5.30771920	      0.75685311	      0.75778023	     -0.25953979	     13.10537101	    -11.97624438	     -7.70996716	    -63.30650269	     21.76527016	      0.33972458	      0.00000000	     -3.76149837	     13.17884990	      8.75042599	    -15.59056894	     22.47627676	      1.71640725	      0.00000000	    -31.47986092	     -5.72443762	      1.94791808
      5.05500000	      9.94453836	      9.31954341	      5.65018517	      0.76296436	      0.75789918	     -0.25966869	     13.91455776	    -12.16912448	     -7.99892526	    -62.28945356	     22.19373717	      0.98396186	      0.00000000	     -4.44987797	     13.10277130	      9.02085523	    -15.38555266	     22.90115744	      1.97565780	      0.00000000	    -31.73912284	     -5.56392341	      1.53110445
      5.06000000	      9.96896707	      9.38582442	      5.97752316	      0.76907736	      0.75793472	     -0.25974899	     14.68262610	    -12.38324295	     -8.26115103	    -61.18438600	     22.57288358	      1.61812215	      0.00000000	     -5.14398032	     13.03638043	      9.27236779	    -15.18658775	     23.33500520	      2.25325475	      0.00000000	    -32.01283838	     -5.43663521	      1.12775771
      5.06500000	      9.99592617	      9.47076061	      6.28661167	      0.77520780	      0.75788176	     -0.25980402	     15.41191700	    -12.61909833	     -8.49697015	    -59.98423177	     22.91488238	      2.24679867	      0.00000000	     -5.83576458	     12.98288588	      9.50688184	    -15.00065377	     23.78606429	      2.54455614	      0.00000000	    -32.28693374	     -5.33573444	      0.74235273
      5.07000000	     10.03238233	      9.57914993	      6.58494574	      0.78133780	      0.75775711	     -0.25981530	     16.09396993	    -12.87678052	     -8.70630217	    -58.69275985	     23.20538888	      2.88411812	      0.00000000	     -6.53692018	     12.94130042	      9.71793749	    -14.81560933	     24.23261392	      2.85010817	      0.00000000	    -32.57595817	     -5.26754628	      0.35942008
      5.07500000	     10.07058800	      9.70536017	      6.86644894	      0.78748859	      0.75755392	     -0.25980634	     16.73430868	    -13.15075047	     -8.88404374	    -57.30730336	     23.46056214	      3.53427126	      0.00000000	     -7.24278017	     12.91222493	      9.91342730	    -14.62993315	     24.68783496	      3.16481583	      0.00000000	    -32.86360762	     -5.22283202	     -0.00832816
      5.08000000	     10.10961177	      9.85048988	      7.13026541	      0.79366017	      0.75727737	     -0.25975789	     17.33357244	    -13.43785190	     -9.02491388	    -55.82786959	     23.67273156	      4.20228118	      0.00000000	     -7.95389664	     12.89433868	     10.08919315	    -14.43967148	     25.14011136	      3.48559793	      0.00000000	    -33.14915823	     -5.20718721	     -0.36223673
      5.08500000	     10.14696922	     10.01051450	      7.37437212	      0.79985754	      0.75692873	     -0.25966505	     17.89170825	    -13.73130137	     -9.13031856	    -54.25255073	     23.84646898	      4.90243512	      0.00000000	     -8.66877500	     12.88442375	     10.24587427	    -14.24215319	     25.59042273	      3.81204725	      0.00000000	    -33.42892556	     -5.22241189	     -0.70452425
      5.09000000	     10.18219452	     10.18568597	      7.60457270	      0.80607829	      0.75651198	     -0.25954648	     18.40639584	    -14.03162229	     -9.19706474	    -52.58303543	     23.98440177	      5.64686962	      0.00000000	     -9.38864415	     12.88350395	     10.38207413	    -14.03583782	     26.03653139	      4.14506602	      0.00000000	    -33.70168179	     -5.25955300	     -1.03189827
      5.09500000	     10.21480449	     10.37345388	      7.81573063	      0.81232990	      0.75602892	     -0.25939422	     18.87747126	    -14.33286780	     -9.22064697	    -50.81972806	     24.08458271	      6.43658395	      0.00000000	    -10.11399251	     12.89003407	     10.49685935	    -13.81870668	     26.47416998	      4.48264591	      0.00000000	    -33.96459667	     -5.31942236	     -1.34866194
      5.10000000	     10.22129333	     10.56937996	      8.01219090	      0.81861370	      0.75545553	     -0.25921364	     19.33341063	    -14.63225429	     -9.19980465	    -48.97300246	     24.13331485	      7.26909853	      0.00000000	    -10.82073490	     12.90466495	     10.60827345	    -13.58859713	     26.91585981	      4.81574736	      0.00000000	    -34.19109148	     -5.40535976	     -1.62057689
      5.10500000	     10.24863074	     10.78100806	      8.20066321	      0.82494398	      0.75485023	     -0.25901169	     19.70279238	    -14.93735989	     -9.15142852	    -47.02678211	     24.17428072	      8.19889734	      0.00000000	    -11.55602318	     12.92350694	     10.66824159	    -13.35895284	     27.34228601	      5.16772425	      0.00000000	    -34.43009368	     -5.50027404	     -1.94337191
      5.11000000	     10.25116412	     10.99339622	      8.37279139	      0.83131434	      0.75416272	     -0.25878370	     20.05252108	    -15.22931872	     -9.05347616	    -45.00232404	     24.15202944	      9.16294111	      0.00000000	    -12.27346775	     12.94460754	     10.72368519	    -13.11643972	     27.76904872	      5.50890651	      0.00000000	    -34.62978541	     -5.61262437	     -2.23245408
      5.11500000	     10.24732653	     11.21723118	      8.54430290	      0.83772818	      0.75341589	     -0.25854284	     20.35126658	    -15.52581724	     -8.92352032	    -42.90522427	     24.09237436	     10.18187483	      0.00000000	    -12.99195340	     12.97185244	     10.76701008	    -12.87146681	     28.18786389	      5.86131354	      0.00000000	    -34.81437603	     -5.73753162	     -2.51658249
      5.12000000	     10.22945648	     11.44312202	      8.70980837	      0.84418804	      0.75260560	     -0.25827941	     20.61000523	    -15.81446269	     -8.75832416	    -40.74174299	     23.98076651	     11.23325467	      0.00000000	    -13.69875858	     12.99905826	     10.79975848	    -12.62856032	     28.60118691	      6.20957041	      0.00000000	    -34.97207482	     -5.87253471	     -2.80517165
      5.12500000	     10.19219605	     11.67106679	      8.88109264	      0.85070151	      0.75173085	     -0.25801324	     20.83093353	    -16.10133717	     -8.56199113	    -38.52579514	     23.80616003	     12.30420369	      0.00000000	    -14.38767481	     13.02620606	     10.82240959	    -12.39350166	     29.00977474	      6.54744998	      0.00000000	    -35.09514067	     -6.00938417	     -3.09558442
      5.13000000	     10.16239706	     11.90860522	      9.05973970	      0.85727959	      0.75082095	     -0.25774345	     20.97938492	    -16.39787780	     -8.36368171	    -36.26808303	     23.60531157	     13.39117852	      0.00000000	    -15.08876324	     13.05445336	     10.85057322	    -12.17205902	     29.41431875	      6.90977955	      0.00000000	    -35.21441064	     -6.14946309	     -3.40501396
      5.13500000	     10.11387862	     12.14430170	      9.25365283	      0.86390964	      0.74985687	     -0.25747359	     21.09163990	    -16.69351186	     -8.14751512	    -33.99163571	     23.33994710	     14.43634494	      0.00000000	    -15.76593577	     13.07664232	     10.87936486	    -11.97201937	     29.81428311	      7.25485273	      0.00000000	    -35.30221031	     -6.28417446	     -3.72856615
      5.14000000	     10.05471903	     12.38194543	      9.47028723	      0.87059288	      0.74885254	     -0.25721342	     21.15890664	    -16.99825098	     -7.93057063	    -31.71806483	     23.02448242	     15.42318607	      0.00000000	    -16.42549385	     13.09291551	     10.91978212	    -11.80290977	     30.20921744	      7.59658718	      0.00000000	    -35.36879047	     -6.40956196	     -4.08002951
      5.14500000	      9.99136616	     12.62123001	      9.71063092	      0.87733643	      0.74781950	     -0.25695530	     21.17612719	    -17.31301681	     -7.72915293	    -29.46834021	     22.68465338	     16.31900712	      0.00000000	    -17.07162361	     13.10036581	     10.98400171	    -11.67271644	     30.60201687	      7.94002654	      0.00000000	    -35.42141713	     -6.52707998	     -4.46103274
      5.15000000	      9.91941413	     12.85915690	      9.97981044	      0.88414458	      0.74676081	     -0.25671128	     21.15300098	    -17.63913725	     -7.55101123	    -27.27027402	     22.31961888	     17.09782912	      0.00000000	    -17.69606557	     13.09669238	     11.07215339	    -11.58988319	     30.99275333	      8.27633946	      0.00000000	    -35.45309182	     -6.62872263	     -4.86933521
      5.15500000	      9.84184656	     13.09462619	     10.28104388	      0.89101228	      0.74568909	     -0.25648363	     21.09268098	    -17.97789450	     -7.40703261	    -25.15318684	     21.94249086	     17.74796165	      0.00000000	    -18.29815609	     13.07810922	     11.18788601	    -11.56004670	     31.38240681	      8.60758546	      0.00000000	    -35.46961472	     -6.71215938	     -5.30281813
